<svg width="20" height="20" viewBox="0 0 19 20" fill="none" xmlns="http://www.w3.org/2000/svg">
<path d="M8.77148 10.75V14C8.77148 14.2125 8.8434 14.3906 8.98724 14.5343C9.13107 14.6781 9.30924 14.75 9.52174 14.75C9.7344 14.75 9.91248 14.6781 10.056 14.5343C10.1997 14.3906 10.2715 14.2125 10.2715 14V10.75H13.5215C13.734 10.75 13.9121 10.6781 14.0557 10.5343C14.1996 10.3904 14.2715 10.2122 14.2715 9.99975C14.2715 9.78708 14.1996 9.609 14.0557 9.4655C13.9121 9.32183 13.734 9.25 13.5215 9.25H10.2715V6C10.2715 5.7875 10.1996 5.60942 10.0557 5.46575C9.9119 5.32192 9.73373 5.25 9.52123 5.25C9.30857 5.25 9.13048 5.32192 8.98698 5.46575C8.84332 5.60942 8.77148 5.7875 8.77148 6V9.25H5.52148C5.30898 9.25 5.1309 9.32192 4.98723 9.46575C4.8434 9.60958 4.77148 9.78775 4.77148 10.0003C4.77148 10.2129 4.8434 10.391 4.98723 10.5345C5.1309 10.6782 5.30898 10.75 5.52148 10.75H8.77148ZM9.52323 19.5C8.20923 19.5 6.97415 19.2507 5.81798 18.752C4.66182 18.2533 3.65615 17.5766 2.80098 16.7218C1.94582 15.8669 1.26873 14.8617 0.769734 13.706C0.270901 12.5503 0.0214844 11.3156 0.0214844 10.0017C0.0214844 8.68775 0.270818 7.45267 0.769484 6.2965C1.26815 5.14033 1.9449 4.13467 2.79973 3.2795C3.65457 2.42433 4.65982 1.74725 5.81548 1.24825C6.97115 0.749417 8.2059 0.5 9.51973 0.5C10.8337 0.5 12.0688 0.749333 13.225 1.248C14.3812 1.74667 15.3868 2.42342 16.242 3.27825C17.0972 4.13308 17.7742 5.13833 18.2732 6.294C18.7721 7.44967 19.0215 8.68442 19.0215 9.99825C19.0215 11.3123 18.7722 12.5473 18.2735 13.7035C17.7748 14.8597 17.0981 15.8653 16.2432 16.7205C15.3884 17.5757 14.3832 18.2528 13.2275 18.7518C12.0718 19.2506 10.8371 19.5 9.52323 19.5Z" fill="currentColor"/>
</svg>
