<svg width="15" height="9" viewBox="0 0 15 9" fill="none" xmlns="http://www.w3.org/2000/svg">
<path d="M7.45834 7.18804L13.537 1.10938C13.6973 0.949063 13.8882 0.870989 14.1095 0.875159C14.3309 0.879328 14.5218 0.961571 14.6823 1.12189C14.8426 1.28221 14.9228 1.47305 14.9228 1.69443C14.9228 1.91581 14.8426 2.10672 14.6823 2.26717L8.49186 8.44509C8.34593 8.59088 8.18245 8.69895 8.00143 8.76929C7.8204 8.83976 7.63937 8.875 7.45834 8.875C7.27731 8.875 7.09628 8.83976 6.91525 8.76929C6.73422 8.69895 6.57074 8.59088 6.42482 8.44509L0.23439 2.25466C0.0740738 2.09435 -0.00399971 1.90558 0.000169754 1.68838C0.00433922 1.47103 0.0865822 1.28221 0.2469 1.12189C0.407216 0.961571 0.598063 0.881412 0.81944 0.881412C1.04082 0.881412 1.23173 0.961571 1.39218 1.12189L7.45834 7.18804Z" fill="currentColor"/>
</svg>
