<svg width="9" height="9" viewBox="0 0 9 9" fill="none" xmlns="http://www.w3.org/2000/svg">
<path d="M3.62778 8.01542V5.76909L1.67612 6.89459C1.50205 6.99219 1.3182 7.01581 1.12456 6.96545C0.930927 6.9151 0.785309 6.79992 0.687711 6.61992C0.590112 6.44683 0.565694 6.26331 0.614457 6.06937C0.663212 5.87542 0.774658 5.72995 0.948795 5.63298L2.90046 4.50003L0.948795 3.3792C0.774658 3.28261 0.663212 3.136 0.614457 2.93936C0.565694 2.74273 0.590112 2.55739 0.687711 2.38334C0.785309 2.20928 0.931707 2.09707 1.1269 2.04672C1.32209 1.99636 1.50672 2.01999 1.68077 2.11758L3.62778 3.24308V0.984635C3.62778 0.783756 3.6987 0.612319 3.84056 0.470321C3.98241 0.328324 4.15367 0.257324 4.35434 0.257324C4.555 0.257324 4.72652 0.328324 4.86887 0.470321C5.01122 0.612319 5.0824 0.783756 5.0824 0.984635V3.24308L7.03406 2.11758C7.20812 2.01999 7.39197 1.99636 7.58561 2.04672C7.77925 2.09707 7.92487 2.20928 8.02247 2.38334C8.12006 2.55739 8.14293 2.74273 8.09105 2.93936C8.03919 3.136 7.92681 3.28261 7.75391 3.3792L5.80972 4.50003L7.76138 5.63298C7.93552 5.72995 8.04696 5.87542 8.09572 6.06937C8.14448 6.26331 8.12006 6.45029 8.02247 6.6303C7.92487 6.80338 7.77847 6.9151 7.58327 6.96545C7.38808 7.01581 7.20346 6.99219 7.0294 6.89459L5.0824 5.76909V8.01542C5.0824 8.2163 5.01147 8.38773 4.86962 8.52973C4.72777 8.67173 4.55651 8.74273 4.35584 8.74273C4.15517 8.74273 3.98366 8.67173 3.84131 8.52973C3.69895 8.38773 3.62778 8.2163 3.62778 8.01542Z" fill="currentColor"/>
</svg>
