<svg width="17" height="17" viewBox="0 0 18 18" fill="none" xmlns="http://www.w3.org/2000/svg">
<path d="M1.61746 16.3288C1.16547 16.3288 0.782895 16.1722 0.469737 15.8591C0.156579 15.5459 0 15.1633 0 14.7113V5.41994C0 4.96795 0.156579 4.58537 0.469737 4.27221C0.782895 3.95906 1.16547 3.80248 1.61746 3.80248H5.36842V2.28836C5.36842 1.83637 5.525 1.45379 5.83816 1.14064C6.15132 0.827477 6.53389 0.670898 6.98588 0.670898H10.0141C10.4661 0.670898 10.8487 0.827477 11.1618 1.14064C11.475 1.45379 11.6316 1.83637 11.6316 2.28836V3.80248H15.3825C15.8345 3.80248 16.2171 3.95906 16.5303 4.27221C16.8434 4.58537 17 4.96795 17 5.41994V14.7113C17 15.1633 16.8434 15.5459 16.5303 15.8591C16.2171 16.1722 15.8345 16.3288 15.3825 16.3288H1.61746ZM6.71053 3.80248H10.2895V2.28836C10.2895 2.21946 10.2608 2.15638 10.2034 2.09912C10.1461 2.04171 10.083 2.013 10.0141 2.013H6.98588C6.91699 2.013 6.85391 2.04171 6.79664 2.09912C6.73923 2.15638 6.71053 2.21946 6.71053 2.28836V3.80248ZM15.6579 11.1841H10.7368V11.941C10.7368 12.1717 10.6597 12.3641 10.5053 12.5183C10.3511 12.6727 10.1587 12.7498 9.928 12.7498H7.072C6.84131 12.7498 6.64886 12.6727 6.49467 12.5183C6.34033 12.3641 6.26316 12.1717 6.26316 11.941V11.1841H1.34211V14.7113C1.34211 14.7802 1.37081 14.8433 1.42822 14.9006C1.48549 14.958 1.54857 14.9867 1.61746 14.9867H15.3825C15.4514 14.9867 15.5145 14.958 15.5718 14.9006C15.6292 14.8433 15.6579 14.7802 15.6579 14.7113V11.1841ZM7.60526 11.4077H9.39474V9.61827H7.60526V11.4077ZM1.34211 9.84195H6.26316V9.085C6.26316 8.85431 6.34033 8.66187 6.49467 8.50767C6.64886 8.35333 6.84131 8.27616 7.072 8.27616H9.928C10.1587 8.27616 10.3511 8.35333 10.5053 8.50767C10.6597 8.66187 10.7368 8.85431 10.7368 9.085V9.84195H15.6579V5.41994C15.6579 5.35104 15.6292 5.28796 15.5718 5.2307C15.5145 5.17329 15.4514 5.14458 15.3825 5.14458H1.61746C1.54857 5.14458 1.48549 5.17329 1.42822 5.2307C1.37081 5.28796 1.34211 5.35104 1.34211 5.41994V9.84195Z" fill="currentColor"/>
</svg>
