<svg width="16" height="19" viewBox="0 0 17 19" fill="none" xmlns="http://www.w3.org/2000/svg">
<path d="M1.70141 18.4957C1.22596 18.4957 0.823529 18.331 0.494118 18.0016C0.164706 17.6722 0 17.2697 0 16.7943V4.19712C0 3.72167 0.164706 3.31924 0.494118 2.98982C0.823529 2.66041 1.22596 2.49571 1.70141 2.49571H3.00447V1.22865C3.00447 1.02237 3.07357 0.850137 3.21176 0.711941C3.34996 0.573902 3.5222 0.504883 3.72847 0.504883C3.9349 0.504883 4.10714 0.573902 4.24518 0.711941C4.38337 0.850137 4.45247 1.02237 4.45247 1.22865V2.49571H11.5838V1.21077C11.5838 1.01045 11.6513 0.842686 11.7864 0.707471C11.9216 0.572412 12.0893 0.504883 12.2896 0.504883C12.49 0.504883 12.6576 0.572412 12.7927 0.707471C12.9279 0.842686 12.9955 1.01045 12.9955 1.21077V2.49571H14.2986C14.774 2.49571 15.1765 2.66041 15.5059 2.98982C15.8353 3.31924 16 3.72167 16 4.19712V16.7943C16 17.2697 15.8353 17.6722 15.5059 18.0016C15.1765 18.331 14.774 18.4957 14.2986 18.4957H1.70141ZM1.70141 17.0839H14.2986C14.3711 17.0839 14.4374 17.0537 14.4976 16.9934C14.558 16.9331 14.5882 16.8668 14.5882 16.7943V7.96182H1.41176V16.7943C1.41176 16.8668 1.44196 16.9331 1.50235 16.9934C1.56259 17.0537 1.62894 17.0839 1.70141 17.0839ZM1.41176 6.55006H14.5882V4.19712C14.5882 4.12465 14.558 4.05829 14.4976 3.99806C14.4374 3.93767 14.3711 3.90747 14.2986 3.90747H1.70141C1.62894 3.90747 1.56259 3.93767 1.50235 3.99806C1.44196 4.05829 1.41176 4.12465 1.41176 4.19712V6.55006ZM8 11.5094C7.76957 11.5094 7.57318 11.4282 7.41082 11.2658C7.24863 11.1036 7.16753 10.9072 7.16753 10.6766C7.16753 10.4462 7.24863 10.2498 7.41082 10.0875C7.57318 9.92527 7.76957 9.84418 8 9.84418C8.23043 9.84418 8.42682 9.92527 8.58918 10.0875C8.75137 10.2498 8.83247 10.4462 8.83247 10.6766C8.83247 10.9072 8.75137 11.1036 8.58918 11.2658C8.42682 11.4282 8.23043 11.5094 8 11.5094ZM4.23529 11.5094C4.00486 11.5094 3.80847 11.4282 3.64612 11.2658C3.48392 11.1036 3.40282 10.9072 3.40282 10.6766C3.40282 10.4462 3.48392 10.2498 3.64612 10.0875C3.80847 9.92527 4.00486 9.84418 4.23529 9.84418C4.46573 9.84418 4.66212 9.92527 4.82447 10.0875C4.98667 10.2498 5.06776 10.4462 5.06776 10.6766C5.06776 10.9072 4.98667 11.1036 4.82447 11.2658C4.66212 11.4282 4.46573 11.5094 4.23529 11.5094ZM11.7647 11.5094C11.5343 11.5094 11.3379 11.4282 11.1755 11.2658C11.0133 11.1036 10.9322 10.9072 10.9322 10.6766C10.9322 10.4462 11.0133 10.2498 11.1755 10.0875C11.3379 9.92527 11.5343 9.84418 11.7647 9.84418C11.9951 9.84418 12.1915 9.92527 12.3539 10.0875C12.5161 10.2498 12.5972 10.4462 12.5972 10.6766C12.5972 10.9072 12.5161 11.1036 12.3539 11.2658C12.1915 11.4282 11.9951 11.5094 11.7647 11.5094ZM8 15.2016C7.76957 15.2016 7.57318 15.1204 7.41082 14.9581C7.24863 14.7959 7.16753 14.5995 7.16753 14.3691C7.16753 14.1385 7.24863 13.9421 7.41082 13.7799C7.57318 13.6176 7.76957 13.5364 8 13.5364C8.23043 13.5364 8.42682 13.6176 8.58918 13.7799C8.75137 13.9421 8.83247 14.1385 8.83247 14.3691C8.83247 14.5995 8.75137 14.7959 8.58918 14.9581C8.42682 15.1204 8.23043 15.2016 8 15.2016ZM4.23529 15.2016C4.00486 15.2016 3.80847 15.1204 3.64612 14.9581C3.48392 14.7959 3.40282 14.5995 3.40282 14.3691C3.40282 14.1385 3.48392 13.9421 3.64612 13.7799C3.80847 13.6176 4.00486 13.5364 4.23529 13.5364C4.46573 13.5364 4.66212 13.6176 4.82447 13.7799C4.98667 13.9421 5.06776 14.1385 5.06776 14.3691C5.06776 14.5995 4.98667 14.7959 4.82447 14.9581C4.66212 15.1204 4.46573 15.2016 4.23529 15.2016ZM11.7647 15.2016C11.5343 15.2016 11.3379 15.1204 11.1755 14.9581C11.0133 14.7959 10.9322 14.5995 10.9322 14.3691C10.9322 14.1385 11.0133 13.9421 11.1755 13.7799C11.3379 13.6176 11.5343 13.5364 11.7647 13.5364C11.9951 13.5364 12.1915 13.6176 12.3539 13.7799C12.5161 13.9421 12.5972 14.1385 12.5972 14.3691C12.5972 14.5995 12.5161 14.7959 12.3539 14.9581C12.1915 15.1204 11.9951 15.2016 11.7647 15.2016Z" fill="currentColor"/>
</svg>
