<svg width="13" height="16" viewBox="0 0 13 16" fill="none" xmlns="http://www.w3.org/2000/svg">
<path d="M4.28044 12.6373C3.87305 12.6373 3.52823 12.4962 3.24597 12.2139C2.96371 11.9317 2.82258 11.5868 2.82258 11.1794V1.99839C2.82258 1.591 2.96371 1.24617 3.24597 0.963914C3.52823 0.681656 3.87305 0.540527 4.28044 0.540527H11.0421C11.4495 0.540527 11.7944 0.681656 12.0766 0.963914C12.3589 1.24617 12.5 1.591 12.5 1.99839V11.1794C12.5 11.5868 12.3589 11.9317 12.0766 12.2139C11.7944 12.4962 11.4495 12.6373 11.0421 12.6373H4.28044ZM4.28044 11.4276H11.0421C11.1042 11.4276 11.1611 11.4018 11.2127 11.35C11.2644 11.2984 11.2903 11.2415 11.2903 11.1794V1.99839C11.2903 1.93629 11.2644 1.87944 11.2127 1.82783C11.1611 1.77608 11.1042 1.7502 11.0421 1.7502H4.28044C4.21835 1.7502 4.16149 1.77608 4.10988 1.82783C4.05813 1.87944 4.03226 1.93629 4.03226 1.99839V11.1794C4.03226 11.2415 4.05813 11.2984 4.10988 11.35C4.16149 11.4018 4.21835 11.4276 4.28044 11.4276ZM1.45786 15.4599C1.05047 15.4599 0.705645 15.3188 0.423387 15.0365C0.141129 14.7542 0 14.4094 0 14.002V4.21613C0 4.04449 0.05793 3.90074 0.17379 3.78488C0.289516 3.66916 0.433199 3.61129 0.604839 3.61129C0.776478 3.61129 0.920228 3.66916 1.03609 3.78488C1.15181 3.90074 1.20968 4.04449 1.20968 4.21613V14.002C1.20968 14.0641 1.23555 14.121 1.2873 14.1726C1.33891 14.2243 1.39577 14.2502 1.45786 14.2502H8.8244C8.99604 14.2502 9.13978 14.3081 9.25565 14.4238C9.37137 14.5397 9.42923 14.6834 9.42923 14.855C9.42923 15.0267 9.37137 15.1704 9.25565 15.2861C9.13978 15.402 8.99604 15.4599 8.8244 15.4599H1.45786Z" fill="currentColor"/>
</svg>
