<svg width="17" height="17" viewBox="0 0 18 17" fill="none" xmlns="http://www.w3.org/2000/svg">
<path d="M4.02632 10.1173C4.23106 10.1173 4.4027 10.048 4.54124 9.90945C4.67977 9.77092 4.74904 9.59928 4.74904 9.39453C4.74904 9.18979 4.67977 9.01814 4.54124 8.87961C4.4027 8.74108 4.23106 8.67181 4.02632 8.67181C3.82157 8.67181 3.64993 8.74108 3.51139 8.87961C3.37286 9.01814 3.30359 9.18979 3.30359 9.39453C3.30359 9.59928 3.37286 9.77092 3.51139 9.90945C3.64993 10.048 3.82157 10.1173 4.02632 10.1173ZM4.02632 6.53831C4.23106 6.53831 4.4027 6.46904 4.54124 6.3305C4.67977 6.19197 4.74904 6.02033 4.74904 5.81558C4.74904 5.61084 4.67977 5.4392 4.54124 5.30066C4.4027 5.16213 4.23106 5.09286 4.02632 5.09286C3.82157 5.09286 3.64993 5.16213 3.51139 5.30066C3.37286 5.4392 3.30359 5.61084 3.30359 5.81558C3.30359 6.02033 3.37286 6.19197 3.51139 6.3305C3.64993 6.46904 3.82157 6.53831 4.02632 6.53831ZM6.53851 10.0656H12.9737C13.1638 10.0656 13.3232 10.0012 13.4517 9.87254C13.5804 9.74385 13.6447 9.58444 13.6447 9.39431C13.6447 9.20403 13.5804 9.04469 13.4517 8.91629C13.3232 8.78775 13.1638 8.72348 12.9737 8.72348H6.53851C6.34838 8.72348 6.18897 8.78783 6.06028 8.91652C5.93173 9.04521 5.86746 9.20462 5.86746 9.39476C5.86746 9.58504 5.93173 9.74437 6.06028 9.87277C6.18897 10.0013 6.34838 10.0656 6.53851 10.0656ZM6.53851 6.48664H12.9737C13.1638 6.48664 13.3232 6.42229 13.4517 6.2936C13.5804 6.1649 13.6447 6.00549 13.6447 5.81536C13.6447 5.62508 13.5804 5.46574 13.4517 5.33735C13.3232 5.2088 13.1638 5.14453 12.9737 5.14453H6.53851C6.34838 5.14453 6.18897 5.20888 6.06028 5.33757C5.93173 5.46626 5.86746 5.62568 5.86746 5.81581C5.86746 6.00609 5.93173 6.16543 6.06028 6.29382C6.18897 6.42236 6.34838 6.48664 6.53851 6.48664ZM1.61746 14.3156C1.16547 14.3156 0.782895 14.159 0.469737 13.8458C0.156579 13.5327 0 13.1501 0 12.6981V2.51199C0 2.06 0.156579 1.67743 0.469737 1.36427C0.782895 1.05111 1.16547 0.894531 1.61746 0.894531H15.3825C15.8345 0.894531 16.2171 1.05111 16.5303 1.36427C16.8434 1.67743 17 2.06 17 2.51199V12.6981C17 13.1501 16.8434 13.5327 16.5303 13.8458C16.2171 14.159 15.8345 14.3156 15.3825 14.3156H11.6316V15.2962C11.6316 15.5254 11.554 15.7175 11.3989 15.8724C11.244 16.0275 11.0519 16.1051 10.8227 16.1051H6.17726C5.94806 16.1051 5.75599 16.0275 5.60105 15.8724C5.44596 15.7175 5.36842 15.5254 5.36842 15.2962V14.3156H1.61746ZM1.61746 12.9735H15.3825C15.4514 12.9735 15.5145 12.9448 15.5718 12.8874C15.6292 12.8301 15.6579 12.767 15.6579 12.6981V2.51199C15.6579 2.4431 15.6292 2.38002 15.5718 2.32275C15.5145 2.26534 15.4514 2.23664 15.3825 2.23664H1.61746C1.54857 2.23664 1.48549 2.26534 1.42822 2.32275C1.37081 2.38002 1.34211 2.4431 1.34211 2.51199V12.6981C1.34211 12.767 1.37081 12.8301 1.42822 12.8874C1.48549 12.9448 1.54857 12.9735 1.61746 12.9735Z" fill="currentColor"/>
</svg>
