<svg width="117" height="73" viewBox="0 0 117 73" fill="none" xmlns="http://www.w3.org/2000/svg">
<path d="M0 25.624L103.158 40.4753L117.001 54.4443L0 25.624Z" fill="#0070E0"/>
<path opacity="0.6" d="M0 25.624L103.158 40.4753L117.001 54.4443L0 25.624Z" fill="white"/>
<path d="M0 25.624L103.158 40.4753L98.3708 60.6753L0 25.624Z" fill="#0070E0"/>
<path opacity="0.2" d="M0 25.624L103.158 40.4753L98.3708 60.6753L0 25.624Z" fill="currentColor"/>
<path d="M96.2531 2.2382L102.24 30.2937C102.396 31.0263 102.254 31.7908 101.847 32.4194C101.44 33.048 100.8 33.4894 100.068 33.6468L46.6356 45.05C45.9031 45.2045 45.1392 45.0628 44.5109 44.6558C43.8826 44.2488 43.4409 43.6096 43.2825 42.878L37.2913 14.8225C37.1369 14.0893 37.2792 13.3249 37.6872 12.6965C38.0951 12.0681 38.7354 11.6268 39.4678 11.4694L92.9 0.0661629C93.6331 -0.088205 94.3976 0.0541483 95.026 0.46207C95.6544 0.869991 96.0956 1.51025 96.2531 2.24273V2.2382Z" fill="#0070E0"/>
<path opacity="0.4" d="M96.2531 2.2382L102.24 30.2937C102.396 31.0263 102.254 31.7908 101.847 32.4194C101.44 33.048 100.8 33.4894 100.068 33.6468L46.6356 45.05C45.9031 45.2045 45.1392 45.0628 44.5109 44.6558C43.8826 44.2488 43.4409 43.6096 43.2825 42.878L37.2913 14.8225C37.1369 14.0893 37.2792 13.3249 37.6872 12.6965C38.0951 12.0681 38.7354 11.6268 39.4678 11.4694L92.9 0.0661629C93.6331 -0.088205 94.3976 0.0541483 95.026 0.46207C95.6544 0.869991 96.0956 1.51025 96.2531 2.24273V2.2382Z" fill="currentColor"/>
<path d="M94.9367 0.40115L77.0852 22.3161C75.4296 24.348 73.1301 25.7537 70.5669 26.3009C68.0037 26.8481 65.3305 26.5039 62.9896 25.3253L37.7441 12.6098C38.1526 12.0231 38.769 11.6138 39.4682 11.465L92.9004 0.0617688C93.5976 -0.0866323 94.3252 0.0346327 94.9367 0.40115Z" fill="#0070E0"/>
<path d="M0 25.624L85.0851 45.8466L98.3708 60.6753L0 25.624Z" fill="#0070E0"/>
<path opacity="0.6" d="M0 25.624L85.0851 45.8466L98.3708 60.6753L0 25.624Z" fill="white"/>
<path d="M31.0373 45.1159L30.8086 45.5063L40.2771 51.0526L40.5058 50.6622L31.0373 45.1159Z" fill="#0070E0"/>
<path d="M44.6867 53.1071L44.458 53.4976L47.8628 55.4919L48.0915 55.1015L44.6867 53.1071Z" fill="#0070E0"/>
<path d="M0 25.624L85.0851 45.8466L68.546 65.7796L0 25.624Z" fill="#0070E0"/>
<path d="M113.806 73.0017C113.692 73.002 113.578 72.9805 113.471 72.9384L99.6157 67.454C99.394 67.3647 99.2166 67.1913 99.1223 66.9717C99.028 66.7521 99.0243 66.5042 99.1122 66.2819C99.2 66.0596 99.3722 65.8811 99.5911 65.7853C99.8101 65.6896 100.058 65.6843 100.281 65.7706L114.141 71.255C114.337 71.3325 114.5 71.476 114.602 71.6608C114.703 71.8456 114.737 72.06 114.697 72.2671C114.658 72.4742 114.547 72.6609 114.384 72.795C114.222 72.9291 114.017 73.0022 113.806 73.0017Z" fill="#0070E0"/>
<path opacity="0.3" d="M113.806 73.0017C113.692 73.002 113.578 72.9805 113.471 72.9384L99.6157 67.454C99.394 67.3647 99.2166 67.1913 99.1223 66.9717C99.028 66.7521 99.0243 66.5042 99.1122 66.2819C99.2 66.0596 99.3722 65.8811 99.5911 65.7853C99.8101 65.6896 100.058 65.6843 100.281 65.7706L114.141 71.255C114.337 71.3325 114.5 71.476 114.602 71.6608C114.703 71.8456 114.737 72.06 114.697 72.2671C114.658 72.4742 114.547 72.6609 114.384 72.795C114.222 72.9291 114.017 73.0022 113.806 73.0017Z" fill="currentColor"/>
<path d="M112.987 65.0556C112.873 65.0549 112.761 65.0318 112.657 64.9877L105.213 62.0238C105.101 61.9807 105 61.9159 104.914 61.8334C104.827 61.7508 104.758 61.652 104.711 61.5426C104.663 61.4333 104.637 61.3156 104.635 61.1962C104.633 61.0769 104.654 60.9583 104.698 60.8473C104.742 60.7363 104.807 60.6351 104.89 60.5495C104.974 60.4638 105.073 60.3955 105.183 60.3484C105.292 60.3013 105.41 60.2763 105.529 60.275C105.649 60.2736 105.767 60.2959 105.878 60.3405L113.322 63.2908C113.545 63.3786 113.724 63.5513 113.82 63.771C113.916 63.9908 113.92 64.2396 113.833 64.4628C113.769 64.6361 113.654 64.7858 113.503 64.8918C113.352 64.9978 113.172 65.0549 112.987 65.0556Z" fill="#0070E0"/>
<path opacity="0.5" d="M112.987 65.0556C112.873 65.0549 112.761 65.0318 112.657 64.9877L105.213 62.0238C105.101 61.9807 105 61.9159 104.914 61.8334C104.827 61.7508 104.758 61.652 104.711 61.5426C104.663 61.4333 104.637 61.3156 104.635 61.1962C104.633 61.0769 104.654 60.9583 104.698 60.8473C104.742 60.7363 104.807 60.6351 104.89 60.5495C104.974 60.4638 105.073 60.3955 105.183 60.3484C105.292 60.3013 105.41 60.2763 105.529 60.275C105.649 60.2736 105.767 60.2959 105.878 60.3405L113.322 63.2908C113.545 63.3786 113.724 63.5513 113.82 63.771C113.916 63.9908 113.92 64.2396 113.833 64.4628C113.769 64.6361 113.654 64.7858 113.503 64.8918C113.352 64.9978 113.172 65.0549 112.987 65.0556Z" fill="white"/>
<path d="M97.4257 72.8841C97.3127 72.8828 97.2009 72.8613 97.0954 72.8207L83.579 67.454C83.4677 67.4108 83.366 67.3461 83.2798 67.2635C83.1937 67.181 83.1247 67.0822 83.0768 66.9728C83.029 66.8635 83.0033 66.7457 83.0011 66.6264C82.999 66.5071 83.0204 66.3885 83.0643 66.2775C83.1082 66.1665 83.1736 66.0653 83.2567 65.9796C83.3398 65.894 83.4391 65.8257 83.5488 65.7786C83.6584 65.7315 83.7763 65.7065 83.8957 65.7051C84.015 65.7038 84.1334 65.726 84.2442 65.7706L97.7606 71.1193C97.9567 71.1968 98.1195 71.3403 98.2211 71.5251C98.3226 71.7098 98.3565 71.9243 98.3168 72.1313C98.2771 72.3384 98.1663 72.5251 98.0036 72.6592C97.841 72.7934 97.6366 72.8665 97.4257 72.866V72.8841Z" fill="#0070E0"/>
<path opacity="0.3" d="M97.4257 72.8841C97.3127 72.8828 97.2009 72.8613 97.0954 72.8207L83.579 67.454C83.4677 67.4108 83.366 67.3461 83.2798 67.2635C83.1937 67.181 83.1247 67.0822 83.0768 66.9728C83.029 66.8635 83.0033 66.7457 83.0011 66.6264C82.999 66.5071 83.0204 66.3885 83.0643 66.2775C83.1082 66.1665 83.1736 66.0653 83.2567 65.9796C83.3398 65.894 83.4391 65.8257 83.5488 65.7786C83.6584 65.7315 83.7763 65.7065 83.8957 65.7051C84.015 65.7038 84.1334 65.726 84.2442 65.7706L97.7606 71.1193C97.9567 71.1968 98.1195 71.3403 98.2211 71.5251C98.3226 71.7098 98.3565 71.9243 98.3168 72.1313C98.2771 72.3384 98.1663 72.5251 98.0036 72.6592C97.841 72.7934 97.6366 72.8665 97.4257 72.866V72.8841Z" fill="currentColor"/>
</svg>
