<svg width="18" height="18" viewBox="0 0 17 17" fill="none" xmlns="http://www.w3.org/2000/svg">
<path d="M16.4836 6.67187C15.8441 5.62476 15.0375 4.68942 14.0958 3.90299L16.0791 1.91966C16.2082 1.78607 16.2796 1.60714 16.278 1.42142C16.2763 1.23569 16.2018 1.05804 16.0705 0.926704C15.9392 0.795374 15.7615 0.720879 15.5758 0.719265C15.3901 0.717651 15.2112 0.789047 15.0776 0.918076L12.9207 3.07778C11.5836 2.28362 10.0551 1.8697 8.49998 1.8807C4.11468 1.8807 1.61568 4.88262 0.51635 6.67187C0.176724 7.22118 -0.00317383 7.85425 -0.00317383 8.50008C-0.00317383 9.1459 0.176724 9.77897 0.51635 10.3283C1.1558 11.3754 1.96241 12.3107 2.90414 13.0972L0.920809 15.0805C0.853156 15.1458 0.799193 15.224 0.76207 15.3104C0.724947 15.3968 0.705407 15.4898 0.70459 15.5838C0.703772 15.6779 0.721694 15.7712 0.75731 15.8582C0.792926 15.9453 0.845522 16.0243 0.912029 16.0909C0.978536 16.1574 1.05762 16.21 1.14467 16.2456C1.23173 16.2812 1.325 16.2991 1.41905 16.2983C1.5131 16.2975 1.60605 16.2779 1.69247 16.2408C1.77889 16.2037 1.85705 16.1497 1.92239 16.0821L4.08423 13.9202C5.41962 14.7143 6.94637 15.1289 8.49998 15.1195C12.8853 15.1195 15.3843 12.1175 16.4836 10.3283C16.8232 9.77897 17.0031 9.1459 17.0031 8.50008C17.0031 7.85425 16.8232 7.22118 16.4836 6.67187ZM1.72335 9.58666C1.52157 9.26015 1.41469 8.8839 1.41469 8.50008C1.41469 8.11625 1.52157 7.74 1.72335 7.41349C2.66827 5.87924 4.80389 3.29737 8.49998 3.29737C9.676 3.29078 10.8355 3.57421 11.8759 4.12258L10.45 5.54845C9.76997 5.09696 8.95466 4.89466 8.14243 4.97587C7.3302 5.05708 6.57109 5.4168 5.99389 5.99399C5.4167 6.57119 5.05698 7.3303 4.97577 8.14253C4.89456 8.95476 5.09686 9.77007 5.54835 10.4501L3.9121 12.0864C3.04447 11.3849 2.30407 10.5393 1.72335 9.58666ZM10.625 8.50008C10.625 9.06366 10.4011 9.60416 10.0026 10.0027C9.60406 10.4012 9.06356 10.6251 8.49998 10.6251C8.18442 10.6239 7.87324 10.5512 7.58977 10.4126L10.4125 7.58987C10.5511 7.87334 10.6238 8.18452 10.625 8.50008ZM6.37498 8.50008C6.37498 7.93649 6.59886 7.39599 6.99737 6.99747C7.39589 6.59896 7.93639 6.37508 8.49998 6.37508C8.81553 6.3763 9.12671 6.44895 9.41018 6.58758L6.58748 9.41028C6.44885 9.12681 6.3762 8.81563 6.37498 8.50008ZM15.2766 9.58666C14.3317 11.1209 12.1961 13.7028 8.49998 13.7028C7.32395 13.7094 6.16443 13.4259 5.12406 12.8776L6.54993 11.4517C7.22998 11.9032 8.04529 12.1055 8.85752 12.0243C9.66975 11.9431 10.4289 11.5834 11.0061 11.0062C11.5833 10.429 11.943 9.66985 12.0242 8.85762C12.1054 8.04539 11.9031 7.23008 11.4516 6.55003L13.0879 4.91378C13.9555 5.61523 14.6959 6.46082 15.2766 7.41349C15.4784 7.74 15.5853 8.11625 15.5853 8.50008C15.5853 8.8839 15.4784 9.26015 15.2766 9.58666Z" fill="currentColor"/>
</svg>
