<svg width="19" height="15" viewBox="0 0 20 15" fill="none" xmlns="http://www.w3.org/2000/svg">
<path d="M1.80775 15C1.31058 15 0.885 14.823 0.531 14.469C0.177 14.115 0 13.6894 0 13.1923V3.80775C0 3.31058 0.177 2.885 0.531 2.531C0.885 2.177 1.31058 2 1.80775 2H7.47125L9.47125 0H17.1923C17.6894 0 18.115 0.177 18.469 0.531C18.823 0.885 19 1.31058 19 1.80775V13.1923C19 13.6894 18.823 14.115 18.469 14.469C18.115 14.823 17.6894 15 17.1923 15H1.80775ZM2.96925 8.6155H8.30775C8.39742 8.6155 8.47108 8.58658 8.52875 8.52875C8.58658 8.47108 8.6155 8.39742 8.6155 8.30775V2.96925L2.96925 8.6155ZM1.5 7.97125L5.97125 3.5H1.80775C1.71792 3.5 1.64417 3.52883 1.5865 3.5865C1.52883 3.64417 1.5 3.71792 1.5 3.80775V7.97125ZM1.5 10.1152V13.1923C1.5 13.2821 1.52883 13.3558 1.5865 13.4135C1.64417 13.4712 1.71792 13.5 1.80775 13.5H17.1923C17.2821 13.5 17.3558 13.4712 17.4135 13.4135C17.4712 13.3558 17.5 13.2821 17.5 13.1923V1.80775C17.5 1.71792 17.4712 1.64417 17.4135 1.5865C17.3558 1.52883 17.2821 1.5 17.1923 1.5H10.1152V8.30775C10.1152 8.80475 9.93825 9.23025 9.58425 9.58425C9.23025 9.93825 8.80475 10.1152 8.30775 10.1152H1.5Z" fill="currentColor"/>
</svg>
