<svg width="17" height="17" viewBox="0 0 18 17" fill="none" xmlns="http://www.w3.org/2000/svg">
<path d="M1.70445 16.75C1.22815 16.75 0.825 16.585 0.495 16.255C0.165 15.925 0 15.5219 0 15.0456V0.957143C0 0.756786 0.0678073 0.5888 0.203422 0.453186C0.339036 0.317728 0.507021 0.25 0.707378 0.25C0.907893 0.25 1.0758 0.317728 1.2111 0.453186C1.34656 0.5888 1.41429 0.756786 1.41429 0.957143V15.0456C1.41429 15.1182 1.44454 15.1846 1.50504 15.245C1.56538 15.3055 1.63185 15.3357 1.70445 15.3357H15.7929C15.9932 15.3357 16.1611 15.4035 16.2966 15.5391C16.4322 15.6747 16.5 15.8427 16.5 16.0431C16.5 16.2436 16.4322 16.4115 16.2966 16.5468C16.1611 16.6823 15.9932 16.75 15.7929 16.75H1.70445ZM4.06159 13.6857C3.83044 13.6857 3.63668 13.6075 3.48032 13.4512C3.32381 13.2947 3.24555 13.1008 3.24555 12.8697V6.8137C3.24555 6.58254 3.32381 6.38879 3.48032 6.23243C3.63668 6.07607 3.83044 5.99789 4.06159 5.99789H5.22201C5.46339 5.99789 5.66579 6.07976 5.82921 6.24351C5.99249 6.40725 6.07412 6.6102 6.07412 6.85236V12.8348C6.07412 13.0769 5.99249 13.2793 5.82921 13.4418C5.66579 13.6044 5.46339 13.6857 5.22201 13.6857H4.06159ZM8.54016 13.6857C8.30901 13.6857 8.11525 13.6075 7.95889 13.4512C7.80238 13.2947 7.72412 13.1008 7.72412 12.8697V2.13571C7.72412 1.89419 7.80584 1.69179 7.96926 1.52851C8.13254 1.36524 8.33494 1.28361 8.57646 1.28361H9.73689C9.96804 1.28361 10.1618 1.36179 10.3182 1.51814C10.4745 1.6745 10.5527 1.86826 10.5527 2.09941V12.8334C10.5527 13.0749 10.4711 13.2773 10.3078 13.4406C10.1444 13.604 9.94196 13.6857 9.70059 13.6857H8.54016ZM13.0187 13.6857C12.7876 13.6857 12.5937 13.6075 12.4372 13.4512C12.2809 13.2947 12.2027 13.1008 12.2027 12.8697V10.6214C12.2027 10.3799 12.2844 10.1775 12.4478 10.0142C12.6111 9.85096 12.8135 9.76932 13.055 9.76932H14.2152C14.4465 9.76932 14.6404 9.8475 14.7967 10.0039C14.9531 10.1602 15.0313 10.354 15.0313 10.5851V12.8334C15.0313 13.0749 14.9496 13.2773 14.7864 13.4406C14.6229 13.604 14.4205 13.6857 14.1792 13.6857H13.0187Z" fill="currentColor"/>
</svg>
