<svg width="18" height="18" viewBox="0 0 20 20" fill="none" xmlns="http://www.w3.org/2000/svg">
<path d="M1.49609 7.92578C1.08709 7.92578 0.734844 7.77803 0.439344 7.48253C0.143844 7.18703 -0.00390625 6.83478 -0.00390625 6.42578V1.92578C-0.00390625 1.51678 0.143844 1.16453 0.439344 0.869031C0.734844 0.573531 1.08709 0.425781 1.49609 0.425781H5.99609C6.40509 0.425781 6.75734 0.573531 7.05284 0.869031C7.34834 1.16453 7.49609 1.51678 7.49609 1.92578V6.42578C7.49609 6.83478 7.34834 7.18703 7.05284 7.48253C6.75734 7.77803 6.40509 7.92578 5.99609 7.92578H1.49609ZM1.49609 17.4258C1.08709 17.4258 0.734844 17.278 0.439344 16.9825C0.143844 16.687 -0.00390625 16.3348 -0.00390625 15.9258V11.4258C-0.00390625 11.0168 0.143844 10.6645 0.439344 10.369C0.734844 10.0735 1.08709 9.92578 1.49609 9.92578H5.99609C6.40509 9.92578 6.75734 10.0735 7.05284 10.369C7.34834 10.6645 7.49609 11.0168 7.49609 11.4258V15.9258C7.49609 16.3348 7.34834 16.687 7.05284 16.9825C6.75734 17.278 6.40509 17.4258 5.99609 17.4258H1.49609ZM10.9961 7.92578C10.5871 7.92578 10.2348 7.77803 9.93934 7.48253C9.64384 7.18703 9.49609 6.83478 9.49609 6.42578V1.92578C9.49609 1.51678 9.64384 1.16453 9.93934 0.869031C10.2348 0.573531 10.5871 0.425781 10.9961 0.425781H15.4961C15.9051 0.425781 16.2573 0.573531 16.5528 0.869031C16.8483 1.16453 16.9961 1.51678 16.9961 1.92578V6.42578C16.9961 6.83478 16.8483 7.18703 16.5528 7.48253C16.2573 7.77803 15.9051 7.92578 15.4961 7.92578H10.9961ZM10.9961 17.4258C10.5871 17.4258 10.2348 17.278 9.93934 16.9825C9.64384 16.687 9.49609 16.3348 9.49609 15.9258V11.4258C9.49609 11.0168 9.64384 10.6645 9.93934 10.369C10.2348 10.0735 10.5871 9.92578 10.9961 9.92578H15.4961C15.9051 9.92578 16.2573 10.0735 16.5528 10.369C16.8483 10.6645 16.9961 11.0168 16.9961 11.4258V15.9258C16.9961 16.3348 16.8483 16.687 16.5528 16.9825C16.2573 17.278 15.9051 17.4258 15.4961 17.4258H10.9961ZM1.49609 6.42578H5.99609V1.92578H1.49609V6.42578ZM10.9961 6.42578H15.4961V1.92578H10.9961V6.42578ZM10.9961 15.9258H15.4961V11.4258H10.9961V15.9258ZM1.49609 15.9258H5.99609V11.4258H1.49609V15.9258Z" fill="currentColor"/>
</svg>
