<svg width="15" height="16" viewBox="0 0 15 16" fill="none" xmlns="http://www.w3.org/2000/svg">
<path d="M11.2369 9.0572C11.3983 9.47667 11.5117 10.0086 11.775 10.3789C11.8324 10.4596 11.903 10.5302 11.9838 10.5876C12.3541 10.8509 12.886 10.9644 13.3054 11.1257M11.2369 9.0572C11.0756 9.47667 10.9622 10.0086 10.6989 10.3789C10.6414 10.4596 10.5709 10.5302 10.4901 10.5876C10.1198 10.8509 9.58791 10.9644 9.16843 11.1257M11.2369 9.0572V13.1942M13.3054 11.1257C12.886 11.287 12.3541 11.4005 11.9838 11.6638C11.903 11.7212 11.8325 11.7918 11.775 11.8725C11.5117 12.2428 11.3983 12.7747 11.2369 13.1942M13.3054 11.1257H9.16843M11.2369 13.1942C11.0756 12.7747 10.9622 12.2428 10.6989 11.8725C10.6414 11.7918 10.5709 11.7212 10.4901 11.6638C10.1198 11.4005 9.58791 11.287 9.16843 11.1257M8.16163 12.9633C7.3131 13.4765 6.1935 13.3668 5.46091 12.6342L2.34058 9.51384C1.47892 8.65219 1.47892 7.25517 2.34058 6.39352L5.46091 3.27319C6.32256 2.41154 7.71958 2.41154 8.58124 3.27319L11.7016 6.39352C11.9891 6.68109 12.1807 7.0283 12.2764 7.39534M8.6909 7.95388C8.6909 8.86781 7.95002 9.60869 7.03609 9.60869C6.12217 9.60869 5.38129 8.8678 5.38129 7.95388C5.38129 7.03996 6.12217 6.29908 7.03609 6.29908C7.95002 6.29908 8.6909 7.03996 8.6909 7.95388Z" stroke="currentColor" stroke-width="1.14583" stroke-linecap="round" stroke-linejoin="round"/>
</svg>
