<svg width="20" height="20" viewBox="0 0 21 20" fill="none" xmlns="http://www.w3.org/2000/svg">
<path d="M9.37545 14.1546C8.64101 12.412 8.98362 10.3231 10.4033 8.90345C11.5938 7.71297 13.2548 7.27986 14.7877 7.60412M9.37545 14.1546C9.60908 14.709 9.95169 15.2283 10.4033 15.6799C11.8315 17.1081 13.9371 17.4463 15.686 16.6943C15.7857 16.6514 15.8953 16.6354 16.0022 16.6532L18.216 17.0228C18.3963 17.0529 18.5526 16.8965 18.5223 16.7162L18.1514 14.5069C18.1334 14.3996 18.1495 14.2897 18.1926 14.1897C18.9466 12.4401 18.6089 10.3327 17.1797 8.90345C16.4989 8.22266 15.6643 7.78955 14.7877 7.60412M9.37545 14.1546C8.46569 14.213 7.54487 14.0591 6.69346 13.693C6.57215 13.6409 6.43875 13.6213 6.3085 13.6431L3.61355 14.093C3.39403 14.1296 3.20374 13.9392 3.24059 13.7197L3.6921 11.0301C3.71403 10.8995 3.6944 10.7657 3.64198 10.644C2.72412 8.51403 3.13514 5.94845 4.87505 4.20854C7.15311 1.93049 10.8466 1.93049 13.1246 4.20854C14.0778 5.16173 14.6322 6.36271 14.7877 7.60412" stroke="currentColor" stroke-width="1.25" stroke-linecap="round" stroke-linejoin="round"/>
</svg>
