<svg width="18" height="19" viewBox="0 0 19 19" fill="none" xmlns="http://www.w3.org/2000/svg">
<path d="M14.8307 16.75L10.1077 12.027C9.97142 11.8902 9.90008 11.7191 9.89375 11.5138C9.88758 11.3084 9.95375 11.1282 10.0922 10.973C10.2308 10.818 10.4047 10.7405 10.6143 10.7405C10.8239 10.7405 11.0063 10.818 11.1615 10.973L15.8845 15.6962V11.5C15.8845 11.2875 15.9564 11.1094 16.1003 10.9658C16.2441 10.8219 16.4223 10.75 16.635 10.75C16.8475 10.75 17.0256 10.8219 17.1693 10.9658C17.3127 11.1094 17.3845 11.2875 17.3845 11.5V17.3463C17.3845 17.6023 17.2979 17.8169 17.1248 17.9902C16.9514 18.1634 16.7367 18.25 16.4807 18.25H10.6345C10.422 18.25 10.2439 18.1781 10.1003 18.0343C9.95642 17.8904 9.8845 17.7122 9.8845 17.4998C9.8845 17.2871 9.95642 17.109 10.1003 16.9655C10.2439 16.8218 10.422 16.75 10.6345 16.75H14.8307ZM3 13.25H0.75C0.5375 13.25 0.359333 13.1781 0.2155 13.0343C0.0718332 12.8904 0 12.7122 0 12.4998C0 12.2871 0.0718332 12.109 0.2155 11.9655C0.359333 11.8218 0.5375 11.75 0.75 11.75H5.69225C5.78208 11.75 5.85583 11.7212 5.9135 11.6635C5.97117 11.6058 6 11.5321 6 11.4423V8.55775C6 8.46792 5.97117 8.39417 5.9135 8.3365C5.85583 8.27883 5.78208 8.25 5.69225 8.25H1.80775C1.31058 8.25 0.885 8.073 0.531 7.719C0.177 7.365 0 6.93942 0 6.44225V3.55775C0 3.06058 0.177 2.635 0.531 2.281C0.885 1.927 1.31058 1.75 1.80775 1.75H3V1.5C3 1.2875 3.07192 1.10942 3.21575 0.96575C3.35958 0.821917 3.53775 0.75 3.75025 0.75C3.96292 0.75 4.141 0.821917 4.2845 0.96575C4.42817 1.10942 4.5 1.2875 4.5 1.5V1.75H6.75C6.9625 1.75 7.14058 1.82192 7.28425 1.96575C7.42808 2.10958 7.5 2.28775 7.5 2.50025C7.5 2.71292 7.42808 2.891 7.28425 3.0345C7.14058 3.17817 6.9625 3.25 6.75 3.25H1.80775C1.71792 3.25 1.64417 3.27883 1.5865 3.3365C1.52883 3.39417 1.5 3.46792 1.5 3.55775V6.44225C1.5 6.53208 1.52883 6.60583 1.5865 6.6635C1.64417 6.72117 1.71792 6.75 1.80775 6.75H5.69225C6.18942 6.75 6.615 6.927 6.969 7.281C7.323 7.635 7.5 8.06058 7.5 8.55775V11.4423C7.5 11.9394 7.323 12.365 6.969 12.719C6.615 13.073 6.18942 13.25 5.69225 13.25H4.5V13.5C4.5 13.7125 4.42808 13.8906 4.28425 14.0343C4.14042 14.1781 3.96217 14.25 3.7495 14.25C3.537 14.25 3.35892 14.1781 3.21525 14.0343C3.07175 13.8906 3 13.7125 3 13.5V13.25Z" fill="currentColor"/>
</svg>
