<svg width="38" height="51" viewBox="0 0 38 51" fill="none" xmlns="http://www.w3.org/2000/svg">
<path d="M31.7097 37.9335H5.07732C4.9892 37.9355 4.90371 37.9033 4.83879 37.8437C4.77386 37.7841 4.73454 37.7016 4.72906 37.6137L2.04947 0.36959C2.04606 0.322844 2.05252 0.275904 2.06844 0.231821C2.08436 0.187737 2.10937 0.147507 2.14186 0.113725C2.17324 0.0786325 2.21154 0.0504049 2.25435 0.0308335C2.29716 0.0112621 2.34357 0.000767693 2.39063 0H22.157C22.2193 0.00216742 22.2803 0.0192215 22.3347 0.0497479L29.5134 4.3712C29.5617 4.39888 29.6025 4.43796 29.6323 4.48504C29.662 4.53212 29.6798 4.58577 29.684 4.64129L32.0437 37.5639C32.0487 37.6118 32.0429 37.6603 32.027 37.7057C32.011 37.7512 31.9852 37.7926 31.9513 37.8269C31.9204 37.8602 31.883 37.8868 31.8415 37.9051C31.7999 37.9234 31.7551 37.9331 31.7097 37.9335ZM5.41138 37.2227H31.333L29.0017 4.84741L22.093 0.689443H2.76023L5.41138 37.2227Z" fill="currentColor"/>
<path d="M13.5637 17.1219C13.5743 17.3151 13.5454 17.5084 13.4788 17.69C13.4121 17.8716 13.3091 18.0376 13.176 18.178C13.0429 18.3184 12.8826 18.4302 12.7048 18.5065C12.5271 18.5827 12.3356 18.6219 12.1421 18.6216C11.7364 18.6144 11.3477 18.4571 11.0511 18.1802C10.7544 17.9032 10.5709 17.5262 10.5358 17.1219C10.5175 16.9268 10.541 16.7299 10.6048 16.5445C10.6686 16.3592 10.7711 16.1895 10.9057 16.0469C11.0402 15.9043 11.2036 15.792 11.3849 15.7176C11.5663 15.6431 11.7614 15.6082 11.9573 15.6151C12.3637 15.6241 12.7525 15.7829 13.049 16.061C13.3454 16.3391 13.5287 16.7169 13.5637 17.1219Z" fill="currentColor"/>
<path d="M23.3017 17.1211C23.3189 17.3157 23.2946 17.5118 23.2303 17.6963C23.1661 17.8808 23.0634 18.0495 22.9289 18.1913C22.7945 18.3331 22.6315 18.4448 22.4507 18.5188C22.2699 18.5928 22.0754 18.6276 21.8802 18.6208C21.4736 18.6137 21.0841 18.4567 20.7863 18.1799C20.4885 17.9031 20.3035 17.526 20.2667 17.1211C20.2551 16.9274 20.2832 16.7333 20.3494 16.5509C20.4156 16.3684 20.5185 16.2015 20.6517 16.0603C20.7849 15.9191 20.9455 15.8067 21.1238 15.73C21.3021 15.6533 21.4942 15.6139 21.6883 15.6143C22.0964 15.6199 22.4877 15.7774 22.786 16.056C23.0843 16.3346 23.2682 16.7143 23.3017 17.1211Z" fill="currentColor"/>
<path d="M26.0593 26.8872C25.9728 26.8857 25.8901 26.8521 25.827 26.793C25.7639 26.7339 25.7251 26.6535 25.7181 26.5673C25.5404 24.1436 21.7449 22.1748 17.26 22.1748C14.2819 22.1748 11.6094 23.0632 10.2874 24.4848C10.0158 24.7467 9.80308 25.0634 9.66337 25.4139C9.52366 25.7644 9.46017 26.1406 9.47711 26.5176C9.48038 26.5642 9.47442 26.6111 9.45957 26.6555C9.44473 26.6998 9.4213 26.7408 9.39061 26.7761C9.32863 26.8475 9.24086 26.8912 9.14661 26.8978C9.05236 26.9044 8.95933 26.8733 8.88802 26.8113C8.81671 26.7493 8.77294 26.6616 8.76635 26.5673C8.74518 26.0961 8.82278 25.6257 8.99414 25.1863C9.16551 24.7469 9.42685 24.3481 9.76141 24.0157C11.1829 22.4591 14.0758 21.4854 17.2387 21.4854C22.1643 21.4854 26.1801 23.6958 26.3791 26.5176C26.382 26.5624 26.376 26.6073 26.3615 26.6498C26.3469 26.6923 26.3242 26.7316 26.2945 26.7652C26.2647 26.7989 26.2287 26.8264 26.1883 26.8461C26.1479 26.8658 26.1041 26.8773 26.0593 26.8801V26.8872Z" fill="currentColor"/>
<path d="M7.99884 14.0795C7.91212 14.0777 7.8289 14.0449 7.76429 13.987C7.69962 13.9218 7.66333 13.8337 7.66333 13.7418C7.66333 13.65 7.69962 13.5618 7.76429 13.4966L9.27822 11.869C9.34313 11.8064 9.42975 11.7715 9.51988 11.7715C9.61001 11.7715 9.69663 11.8064 9.76154 11.869C9.79334 11.9007 9.81859 11.9383 9.83581 11.9798C9.85303 12.0213 9.86189 12.0657 9.86189 12.1106C9.86189 12.1555 9.85303 12.2 9.83581 12.2415C9.81859 12.2829 9.79334 12.3206 9.76154 12.3523L8.24762 13.9799C8.21501 14.0125 8.17616 14.038 8.1334 14.0551C8.09065 14.0722 8.04488 14.0805 7.99884 14.0795Z" fill="currentColor"/>
<path d="M25.3489 14.0795C25.2627 14.0754 25.1802 14.0429 25.1144 13.987L23.373 12.3594C23.3401 12.3276 23.314 12.2895 23.2961 12.2474C23.2782 12.2052 23.269 12.1599 23.269 12.1142C23.269 12.0684 23.2782 12.0231 23.2961 11.981C23.314 11.9389 23.3401 11.9008 23.373 11.869C23.4379 11.8064 23.5245 11.7715 23.6147 11.7715C23.7048 11.7715 23.7914 11.8064 23.8563 11.869L25.5977 13.4966C25.6295 13.5283 25.6547 13.566 25.672 13.6074C25.6892 13.6489 25.698 13.6934 25.698 13.7383C25.698 13.7832 25.6892 13.8276 25.672 13.8691C25.6547 13.9106 25.6295 13.9483 25.5977 13.9799C25.5301 14.0431 25.4414 14.0786 25.3489 14.0795Z" fill="currentColor"/>
<path d="M0.244385 44.9482H1.85072L4.16781 48.033L3.94747 44.9482H5.56802L5.96604 50.5206H4.32418L2.0213 47.4572L2.24164 50.5206H0.621089L0.244385 44.9482Z" fill="currentColor"/>
<path d="M6.69103 47.7353C6.63617 47.3569 6.66229 46.9711 6.76766 46.6035C6.87304 46.2359 7.05526 45.8949 7.30229 45.603C7.57234 45.3374 7.89577 45.1323 8.25113 45.0012C8.60649 44.87 8.98566 44.816 9.3635 44.8425C10.1644 44.7991 10.9511 45.0664 11.5598 45.5888C12.1173 46.144 12.4404 46.892 12.4624 47.6785C12.5211 48.2209 12.4479 48.7695 12.2492 49.2777C12.0652 49.6869 11.7568 50.0276 11.3679 50.2514C10.9012 50.5016 10.3759 50.6219 9.84683 50.5997C9.30305 50.6169 8.76207 50.515 8.26181 50.3012C7.8236 50.0908 7.45394 49.7606 7.19567 49.3488C6.89072 48.8636 6.71685 48.3077 6.69103 47.7353ZM8.41818 47.7353C8.4113 48.1714 8.55153 48.597 8.81622 48.9436C8.92721 49.0659 9.06363 49.1623 9.21589 49.2262C9.36816 49.29 9.53257 49.3197 9.69756 49.3132C9.85512 49.3242 10.013 49.297 10.1578 49.2339C10.3026 49.1708 10.43 49.0736 10.5292 48.9507C10.7333 48.5625 10.8009 48.1169 10.7211 47.6856C10.7241 47.2675 10.5836 46.8611 10.323 46.5341C10.2092 46.4141 10.071 46.3197 9.91784 46.2572C9.76465 46.1947 9.59992 46.1655 9.43458 46.1716C9.27994 46.1649 9.12591 46.1949 8.98508 46.2592C8.84425 46.3234 8.72063 46.4201 8.62431 46.5412C8.41622 46.9074 8.34326 47.3351 8.41818 47.7495V47.7353Z" fill="currentColor"/>
<path d="M15.8035 44.9489H18.3622C18.784 44.9355 19.2043 45.0056 19.599 45.155C19.9113 45.2859 20.1888 45.4879 20.4092 45.7449C20.633 46.0059 20.8044 46.3075 20.9139 46.6334C21.0291 46.9834 21.1007 47.3462 21.1271 47.7138C21.1817 48.1783 21.1455 48.649 21.0205 49.0997C20.9226 49.4119 20.7493 49.695 20.5158 49.9242C20.3211 50.1303 20.0762 50.2821 19.8051 50.3649C19.4745 50.4608 19.1328 50.5133 18.7887 50.5213H16.237L15.8035 44.9489ZM17.6159 46.214L17.8363 49.2561H18.2556C18.515 49.2731 18.7748 49.2318 19.0161 49.1353C19.1753 49.0431 19.2925 48.8928 19.3431 48.7159C19.4244 48.4004 19.4438 48.0721 19.3999 47.7493C19.4135 47.3157 19.2808 46.8901 19.0232 46.541C18.8912 46.4216 18.7359 46.3309 18.5671 46.2746C18.3983 46.2184 18.2196 46.1977 18.0424 46.214H17.6159Z" fill="currentColor"/>
<path d="M25.2562 49.5966H23.3016L23.0954 50.5206H21.3398L23.0315 44.9482H24.9363L27.4311 50.5206H25.6258L25.2562 49.5966ZM24.8084 48.3955L24.055 46.3911L23.5859 48.3955H24.8084Z" fill="currentColor"/>
<path d="M26.6208 44.9482H31.8521L31.9516 46.3271H30.196L30.4945 50.5206H28.7745L28.4759 46.3271H26.7204L26.6208 44.9482Z" fill="currentColor"/>
<path d="M35.8606 49.5966H33.906L33.6999 50.5206H31.9443L33.636 44.9482H35.5124L38.0001 50.5206H36.2018L35.8606 49.5966ZM35.4129 48.3955L34.6523 46.3911L34.1761 48.3955H35.4129Z" fill="currentColor"/>
</svg>
