<svg width="28" height="27" viewBox="0 0 28 27" fill="none" xmlns="http://www.w3.org/2000/svg">
<path d="M14.0206 22.9383C11.4619 22.9383 8.90324 22.532 6.47633 21.7194C5.55389 21.4009 4.85107 20.753 4.54359 19.9075C4.22513 19.0619 4.33494 18.1285 4.84009 17.2939L6.10296 15.1964C6.36652 14.7571 6.60811 13.8786 6.60811 13.3625V10.1889C6.60811 6.10375 9.93549 2.77637 14.0206 2.77637C18.1057 2.77637 21.4331 6.10375 21.4331 10.1889V13.3625C21.4331 13.8677 21.6747 14.7571 21.9382 15.2074L23.1901 17.2939C23.6623 18.0845 23.7502 19.0399 23.4317 19.9075C23.1133 20.775 22.4214 21.4339 21.5539 21.7194C19.138 22.532 16.5793 22.9383 14.0206 22.9383ZM14.0206 4.42359C10.847 4.42359 8.25533 7.00423 8.25533 10.1889V13.3625C8.25533 14.1641 7.92588 15.3501 7.51957 16.042L6.2567 18.1394C6.01511 18.5458 5.94922 18.974 6.09198 19.3364C6.22376 19.7098 6.5532 19.9953 7.00344 20.149C11.5937 21.6865 16.4585 21.6865 21.0487 20.149C21.4441 20.0173 21.7516 19.7208 21.8943 19.3254C22.0371 18.9301 22.0041 18.5018 21.7845 18.1394L20.5216 16.042C20.1043 15.3282 19.7859 14.1532 19.7859 13.3515V10.1889C19.7859 7.00423 17.2052 4.42359 14.0206 4.42359Z" fill="currentColor"/>
<path d="M16.0629 4.71936C15.9861 4.71936 15.9092 4.70838 15.8323 4.68642C15.5139 4.59857 15.2064 4.53268 14.9099 4.48875C13.9765 4.36796 13.076 4.43384 12.2304 4.68642C11.9229 4.78525 11.5935 4.68642 11.3848 4.45581C11.1762 4.2252 11.1103 3.89575 11.2311 3.59925C11.6813 2.4462 12.7795 1.68848 14.0314 1.68848C15.2833 1.68848 16.3814 2.43522 16.8316 3.59925C16.9415 3.89575 16.8866 4.2252 16.6779 4.45581C16.5132 4.63151 16.2826 4.71936 16.0629 4.71936Z" fill="currentColor"/>
<path d="M14.0204 25.4413C12.9332 25.4413 11.879 25.002 11.1103 24.2333C10.3416 23.4646 9.90234 22.4104 9.90234 21.3232H11.5496C11.5496 21.9711 11.8131 22.6081 12.2743 23.0693C12.7356 23.5305 13.3725 23.7941 14.0204 23.7941C15.3821 23.7941 16.4912 22.6849 16.4912 21.3232H18.1384C18.1384 23.5964 16.2936 25.4413 14.0204 25.4413Z" fill="currentColor"/>
</svg>
