<svg width="10" height="10" viewBox="0 0 10 10" fill="none" xmlns="http://www.w3.org/2000/svg">
<path d="M1.06338 10C0.766226 10 0.514706 9.89706 0.308824 9.69118C0.102941 9.48529 0 9.23378 0 8.93662V1.06338C0 0.766226 0.102941 0.514706 0.308824 0.308824C0.514706 0.102941 0.766226 0 1.06338 0H4.3325C4.4577 0 4.56255 0.0422548 4.64706 0.126765C4.73147 0.211176 4.77368 0.31598 4.77368 0.441176C4.77368 0.566373 4.73147 0.671177 4.64706 0.755588C4.56255 0.840098 4.4577 0.882353 4.3325 0.882353H1.06338C1.01809 0.882353 0.976618 0.901225 0.938971 0.93897C0.901226 0.976617 0.882353 1.01809 0.882353 1.06338V8.93662C0.882353 8.98191 0.901226 9.02338 0.938971 9.06103C0.976618 9.09877 1.01809 9.11765 1.06338 9.11765H8.93662C8.98191 9.11765 9.02338 9.09877 9.06103 9.06103C9.09877 9.02338 9.11765 8.98191 9.11765 8.93662V5.6675C9.11765 5.5423 9.1599 5.43745 9.24441 5.35294C9.32882 5.26853 9.43363 5.22632 9.55882 5.22632C9.68402 5.22632 9.78882 5.26853 9.87324 5.35294C9.95775 5.43745 10 5.5423 10 5.6675V8.93662C10 9.23378 9.89706 9.48529 9.69118 9.69118C9.48529 9.89706 9.23378 10 8.93662 10H1.06338ZM9.11765 1.50221L3.96838 6.65162C3.88691 6.73299 3.78451 6.77466 3.66118 6.77662C3.53794 6.77848 3.43368 6.73681 3.34838 6.65162C3.26319 6.56632 3.22059 6.46299 3.22059 6.34162C3.22059 6.22025 3.26319 6.11691 3.34838 6.03162L8.49779 0.882353H6.61765C6.49245 0.882353 6.38765 0.840098 6.30324 0.755588C6.21873 0.671177 6.17647 0.566373 6.17647 0.441176C6.17647 0.31598 6.21873 0.211176 6.30324 0.126765C6.38765 0.0422548 6.49245 0 6.61765 0H9.46824C9.6199 0 9.74642 0.0507349 9.8478 0.152206C9.94927 0.253578 10 0.380098 10 0.531764V3.38235C10 3.50755 9.95775 3.61235 9.87324 3.69676C9.78882 3.78127 9.68402 3.82353 9.55882 3.82353C9.43363 3.82353 9.32882 3.78127 9.24441 3.69676C9.1599 3.61235 9.11765 3.50755 9.11765 3.38235V1.50221Z" fill="currentColor"/>
</svg>
