<svg width="16" height="17" viewBox="0 0 19 19" fill="none" xmlns="http://www.w3.org/2000/svg">
<path d="M8 8.17175C6.97333 8.17175 6.09449 7.80623 5.36347 7.07521C4.63227 6.34401 4.26667 5.46508 4.26667 4.43841C4.26667 3.41174 4.63227 2.5329 5.36347 1.80188C6.09449 1.07068 6.97333 0.705078 8 0.705078C9.02667 0.705078 9.90551 1.07068 10.6365 1.80188C11.3677 2.5329 11.7333 3.41174 11.7333 4.43841C11.7333 5.46508 11.3677 6.34401 10.6365 7.07521C9.90551 7.80623 9.02667 8.17175 8 8.17175ZM0 14.6744V13.9235C0 13.4012 0.141867 12.9174 0.4256 12.4723C0.709334 12.0271 1.08853 11.6849 1.5632 11.4456C2.61742 10.9288 3.68098 10.5412 4.75387 10.2827C5.82676 10.0242 6.9088 9.89495 8 9.89495C9.0912 9.89495 10.1732 10.0242 11.2461 10.2827C12.319 10.5412 13.3826 10.9288 14.4368 11.4456C14.9115 11.6849 15.2907 12.0271 15.5744 12.4723C15.8581 12.9174 16 13.4012 16 13.9235V14.6744C16 15.1242 15.8424 15.5068 15.5272 15.8221C15.212 16.1373 14.8294 16.2949 14.3795 16.2949H1.62053C1.17058 16.2949 0.788 16.1373 0.4728 15.8221C0.1576 15.5068 0 15.1242 0 14.6744ZM1.6 14.6949H14.4V13.9235C14.4 13.7075 14.3374 13.5075 14.2123 13.3235C14.0871 13.1397 13.9172 12.9896 13.7027 12.8733C12.7836 12.4207 11.8465 12.0778 10.8915 11.8445C9.93627 11.6115 8.97244 11.4949 8 11.4949C7.02756 11.4949 6.06373 11.6115 5.10853 11.8445C4.15351 12.0778 3.21644 12.4207 2.29733 12.8733C2.08276 12.9896 1.91289 13.1397 1.78773 13.3235C1.66258 13.5075 1.6 13.7075 1.6 13.9235V14.6949ZM8 6.57174C8.58667 6.57174 9.08889 6.36286 9.50667 5.94508C9.92445 5.5273 10.1333 5.02508 10.1333 4.43841C10.1333 3.85174 9.92445 3.34952 9.50667 2.93175C9.08889 2.51397 8.58667 2.30508 8 2.30508C7.41333 2.30508 6.91111 2.51397 6.49333 2.93175C6.07556 3.34952 5.86667 3.85174 5.86667 4.43841C5.86667 5.02508 6.07556 5.5273 6.49333 5.94508C6.91111 6.36286 7.41333 6.57174 8 6.57174Z" fill="currentColor"/>
</svg>
