<svg width="18" height="19" viewBox="0 0 19 19" fill="none" xmlns="http://www.w3.org/2000/svg">
<path d="M9.71053 9.21224V5.47368C9.71053 5.27237 9.6424 5.10358 9.50613 4.96732C9.36987 4.83121 9.20108 4.76316 8.99976 4.76316C8.79829 4.76316 8.62958 4.83121 8.49363 4.96732C8.35753 5.10358 8.28947 5.27237 8.28947 5.47368V9.43084C8.28947 9.54232 8.31016 9.65032 8.35153 9.75484C8.39274 9.85937 8.45771 9.956 8.54645 10.0447L11.7912 13.2895C11.9222 13.4207 12.0871 13.4878 12.2857 13.4908C12.4843 13.4938 12.6523 13.4267 12.7895 13.2895C12.9267 13.1523 12.9953 12.9858 12.9953 12.7902C12.9953 12.5947 12.9267 12.4284 12.7895 12.2912L9.71053 9.21224ZM9.00166 18.5C7.75682 18.5 6.58674 18.2638 5.49142 17.7914C4.39611 17.3189 3.44337 16.6778 2.63321 15.868C1.82305 15.0581 1.18161 14.1058 0.708868 13.0109C0.236289 11.9161 0 10.7463 0 9.50166C0 8.25682 0.23621 7.08674 0.708632 5.99142C1.18105 4.89611 1.82218 3.94337 2.63203 3.13321C3.44187 2.32305 4.39421 1.68161 5.48905 1.20887C6.5839 0.736289 7.75366 0.5 8.99834 0.5C10.2432 0.5 11.4133 0.73621 12.5086 1.20863C13.6039 1.68105 14.5566 2.32218 15.3668 3.13203C16.1769 3.94187 16.8184 4.89421 17.2911 5.98905C17.7637 7.0839 18 8.25366 18 9.49834C18 10.7432 17.7638 11.9133 17.2914 13.0086C16.8189 14.1039 16.1778 15.0566 15.368 15.8668C14.5581 16.6769 13.6058 17.3184 12.5109 17.7911C11.4161 18.2637 10.2463 18.5 9.00166 18.5ZM9 17.0789C11.1 17.0789 12.8882 16.3408 14.3645 14.8645C15.8408 13.3882 16.5789 11.6 16.5789 9.5C16.5789 7.4 15.8408 5.61184 14.3645 4.13553C12.8882 2.65921 11.1 1.92105 9 1.92105C6.9 1.92105 5.11184 2.65921 3.63553 4.13553C2.15921 5.61184 1.42105 7.4 1.42105 9.5C1.42105 11.6 2.15921 13.3882 3.63553 14.8645C5.11184 16.3408 6.9 17.0789 9 17.0789Z" fill="currentColor"/>
</svg>
