<svg width="15" height="16" viewBox="0 0 15 16" fill="none" xmlns="http://www.w3.org/2000/svg">
<path d="M5.39138 11.3404C3.88585 11.3404 2.61087 10.8182 1.56643 9.77394C0.522144 8.72951 0 7.45453 0 5.949C0 4.44347 0.522144 3.16849 1.56643 2.12405C2.61087 1.07976 3.88585 0.557617 5.39138 0.557617C6.89691 0.557617 8.17189 1.07976 9.21633 2.12405C10.2606 3.16849 10.7828 4.44347 10.7828 5.949C10.7828 6.57863 10.6771 7.17997 10.4658 7.75303C10.2544 8.32609 9.97232 8.8245 9.61967 9.24827L14.6926 14.3212C14.8147 14.4431 14.8771 14.5965 14.8799 14.7814C14.8827 14.9662 14.8203 15.1225 14.6926 15.2502C14.5649 15.3779 14.41 15.4417 14.2279 15.4417C14.046 15.4417 13.8912 15.3779 13.7635 15.2502L8.69066 10.1773C8.24984 10.5413 7.74291 10.8261 7.16985 11.0318C6.59679 11.2375 6.00397 11.3404 5.39138 11.3404ZM5.39138 10.0182C6.52736 10.0182 7.48951 9.62392 8.27783 8.83545C9.0663 8.04713 9.46054 7.08498 9.46054 5.949C9.46054 4.81302 9.0663 3.85087 8.27783 3.06254C7.48951 2.27407 6.52736 1.87984 5.39138 1.87984C4.2554 1.87984 3.29325 2.27407 2.50493 3.06254C1.71646 3.85087 1.32222 4.81302 1.32222 5.949C1.32222 7.08498 1.71646 8.04713 2.50493 8.83545C3.29325 9.62392 4.2554 10.0182 5.39138 10.0182Z" fill="currentColor"/>
</svg>
