<svg width="30" height="30" viewBox="0 0 31 30" fill="none" xmlns="http://www.w3.org/2000/svg">
<path d="M20.6754 3.70079L9.38789 7.45079C1.80039 9.98829 1.80039 14.1258 9.38789 16.6508L12.7379 17.7633L13.8504 21.1133C16.3754 28.7008 20.5254 28.7008 23.0504 21.1133L26.8129 9.83829C28.4879 4.77579 25.7379 2.01329 20.6754 3.70079ZM21.0754 10.4258L16.3254 15.2008C16.1379 15.3883 15.9004 15.4758 15.6629 15.4758C15.4254 15.4758 15.1879 15.3883 15.0004 15.2008C14.6379 14.8383 14.6379 14.2383 15.0004 13.8758L19.7504 9.10079C20.1129 8.73829 20.7129 8.73829 21.0754 9.10079C21.4379 9.46329 21.4379 10.0633 21.0754 10.4258Z" fill="currentColor"/>
</svg>
