<svg width="17" height="19" viewBox="0 0 19 19" fill="none" xmlns="http://www.w3.org/2000/svg">
<path d="M7.45233 18.4726C7.13028 18.4726 6.85214 18.3657 6.61792 18.152C6.38354 17.9384 6.24094 17.6753 6.19009 17.3629L5.95941 15.5956C5.70646 15.5109 5.44706 15.3923 5.1812 15.2398C4.9155 15.0871 4.67789 14.9236 4.46839 14.7494L2.83192 15.445C2.53521 15.5758 2.23708 15.5884 1.93754 15.483C1.63784 15.3777 1.40503 15.1864 1.23913 14.9092L0.174748 13.0638C0.00884241 12.7866 -0.0389303 12.4933 0.0314302 12.1838C0.101633 11.8745 0.26266 11.6194 0.514509 11.4184L1.92927 10.3559C1.90755 10.2155 1.89213 10.0744 1.883 9.93277C1.87387 9.79111 1.8693 9.64999 1.8693 9.50943C1.8693 9.37516 1.87387 9.23869 1.883 9.10001C1.89213 8.96134 1.90755 8.80968 1.92927 8.64503L0.514509 7.58254C0.26266 7.38154 0.103129 7.12481 0.0359163 6.81236C-0.031296 6.50006 0.0180506 6.20524 0.183956 5.92789L1.23913 4.10985C1.40503 3.83864 1.63784 3.64889 1.93754 3.5406C2.23708 3.43214 2.53521 3.44332 2.83192 3.57412L4.45918 4.26073C4.68695 4.08034 4.93006 3.91538 5.18852 3.76584C5.44698 3.61631 5.70095 3.49613 5.95044 3.40531L6.19009 1.63803C6.24094 1.32558 6.38354 1.06256 6.61792 0.848956C6.85214 0.635199 7.13028 0.52832 7.45233 0.52832H9.54473C9.86678 0.52832 10.1449 0.635199 10.3791 0.848956C10.6135 1.06256 10.7561 1.32558 10.807 1.63803L11.0376 3.41428C11.321 3.51722 11.5773 3.6374 11.8067 3.77482C12.0361 3.91223 12.2678 4.0742 12.5015 4.26073L14.1743 3.57412C14.4709 3.44332 14.769 3.43214 15.0687 3.5406C15.3684 3.64889 15.6012 3.83864 15.7669 4.10985L16.8223 5.9371C16.9882 6.21429 17.036 6.50762 16.9656 6.81708C16.8954 7.12638 16.7344 7.38154 16.4825 7.58254L15.0314 8.67219C15.0653 8.82471 15.0838 8.96732 15.0869 9.10001C15.0899 9.23255 15.0914 9.36603 15.0914 9.50045C15.0914 9.62874 15.0883 9.75923 15.0822 9.89192C15.0762 10.0245 15.0545 10.1761 15.017 10.3469L16.4408 11.4184C16.6926 11.6194 16.8552 11.8745 16.9286 12.1838C17.0018 12.4933 16.9554 12.7866 16.7895 13.0638L15.7197 14.9C15.5539 15.1774 15.3197 15.3687 15.017 15.474C14.7143 15.5793 14.4146 15.5666 14.1179 15.4358L12.5015 14.7402C12.2678 14.9267 12.0292 15.0917 11.7859 15.2351C11.5425 15.3786 11.2931 15.4958 11.0376 15.5866L10.807 17.3629C10.7561 17.6753 10.6135 17.9384 10.3791 18.152C10.1449 18.3657 9.86678 18.4726 9.54473 18.4726H7.45233ZM7.55409 17.0559H9.41038L9.74991 14.526C10.2319 14.4001 10.6723 14.2212 11.0712 13.9894C11.4702 13.7573 11.855 13.4591 12.2255 13.0947L14.572 14.081L15.502 12.4754L13.4533 10.9317C13.532 10.6871 13.5855 10.4473 13.6138 10.2123C13.6423 9.97747 13.6566 9.74018 13.6566 9.50045C13.6566 9.25459 13.6423 9.0173 13.6138 8.78859C13.5855 8.55972 13.532 8.32597 13.4533 8.08734L15.5199 6.52548L14.5901 4.91994L12.2163 5.92057C11.9002 5.58278 11.5216 5.28434 11.0804 5.02525C10.639 4.76616 10.1925 4.5827 9.74093 4.47488L9.44296 1.94497H7.56873L7.25612 4.46591C6.7743 4.57971 6.3294 4.75404 5.9214 4.98889C5.51325 5.22389 5.1239 5.52659 4.75337 5.89696L2.40692 4.91994L1.47712 6.52548L3.51663 8.04555C3.43793 8.2697 3.38284 8.50282 3.35136 8.74491C3.31988 8.987 3.30413 9.24184 3.30413 9.50943C3.30413 9.7553 3.31988 9.99628 3.35136 10.2324C3.38284 10.4685 3.43494 10.7016 3.50766 10.9317L1.47712 12.4754L2.40692 14.081L4.7444 13.0893C5.10281 13.4573 5.48602 13.7588 5.89401 13.9938C6.30217 14.2287 6.75321 14.4091 7.24715 14.535L7.55409 17.0559ZM8.50939 12.3338C9.29516 12.3338 9.96382 12.058 10.5154 11.5064C11.0669 10.9549 11.3427 10.2862 11.3427 9.50045C11.3427 8.71469 11.0669 8.04602 10.5154 7.49447C9.96382 6.94292 9.29516 6.66715 8.50939 6.66715C7.71386 6.66715 7.04276 6.94292 6.49609 7.49447C5.94942 8.04602 5.67608 8.71469 5.67608 9.50045C5.67608 10.2862 5.94942 10.9549 6.49609 11.5064C7.04276 12.058 7.71386 12.3338 8.50939 12.3338Z" fill="currentColor"/>
</svg>
