<svg width="19" height="19" viewBox="0 0 19 20" fill="none" xmlns="http://www.w3.org/2000/svg">
<path d="M15.9941 6.24757H2.49414C2.18664 6.24757 1.93164 5.98737 1.93164 5.67359C1.93164 5.35981 2.18664 5.09961 2.49414 5.09961H15.9941C16.3016 5.09961 16.5566 5.35981 16.5566 5.67359C16.5566 5.98737 16.3016 6.24757 15.9941 6.24757Z" fill="currentColor"/>
<path d="M13.7441 10.0737H4.74414C4.43664 10.0737 4.18164 9.81354 4.18164 9.49976C4.18164 9.18599 4.43664 8.92578 4.74414 8.92578H13.7441C14.0516 8.92578 14.3066 9.18599 14.3066 9.49976C14.3066 9.81354 14.0516 10.0737 13.7441 10.0737Z" fill="currentColor"/>
<path d="M10.7441 13.9009H7.74414C7.43664 13.9009 7.18164 13.6407 7.18164 13.3269C7.18164 13.0131 7.43664 12.7529 7.74414 12.7529H10.7441C11.0516 12.7529 11.3066 13.0131 11.3066 13.3269C11.3066 13.6407 11.0516 13.9009 10.7441 13.9009Z" fill="currentColor"/>
</svg>
