<svg width="19" height="19" viewBox="0 0 19 19" fill="none" xmlns="http://www.w3.org/2000/svg">
<g>
<path d="M17.3345 8.61621H14.2745C14.216 8.20299 14.108 7.79832 13.9527 7.41096L16.598 5.87796C16.6864 5.83039 16.7643 5.76554 16.8272 5.68728C16.8901 5.60902 16.9366 5.51893 16.964 5.42235C16.9915 5.32577 16.9992 5.22467 16.9868 5.12504C16.9745 5.02541 16.9422 4.92928 16.892 4.84235C16.8418 4.75542 16.7746 4.67945 16.6945 4.61896C16.6143 4.55847 16.5229 4.51468 16.4255 4.49018C16.3282 4.46569 16.2269 4.46099 16.1277 4.47637C16.0285 4.49175 15.9333 4.52689 15.848 4.57971L13.2005 6.11496C12.9474 5.79525 12.6582 5.50583 12.3387 5.25246L13.8732 2.60421C13.9656 2.4325 13.9875 2.23155 13.9343 2.04397C13.881 1.85639 13.7568 1.69692 13.588 1.59938C13.4191 1.50184 13.2189 1.47389 13.0298 1.52146C12.8407 1.56903 12.6776 1.68838 12.575 1.85421L11.0397 4.49796C10.6524 4.3425 10.2477 4.23447 9.83447 4.17621V1.11621C9.83447 0.917299 9.75546 0.726533 9.6148 0.585881C9.47415 0.445229 9.28339 0.366211 9.08447 0.366211C8.88556 0.366211 8.69479 0.445229 8.55414 0.585881C8.41349 0.726533 8.33447 0.917299 8.33447 1.11621V4.17621C7.92122 4.23447 7.51653 4.3425 7.12922 4.49796L5.59622 1.85271C5.49363 1.68688 5.33049 1.56753 5.14139 1.51996C4.95228 1.47239 4.75209 1.50034 4.58324 1.59788C4.4144 1.69542 4.29018 1.85489 4.23693 2.04247C4.18367 2.23005 4.20557 2.431 4.29797 2.60271L5.83247 5.25246C5.51298 5.50583 5.22381 5.79525 4.97072 6.11496L2.32322 4.57971C2.23784 4.52689 2.14273 4.49175 2.04352 4.47637C1.94431 4.46099 1.84302 4.46569 1.74566 4.49018C1.6483 4.51468 1.55684 4.55847 1.47672 4.61896C1.3966 4.67945 1.32943 4.75542 1.27921 4.84235C1.22899 4.92928 1.19674 5.02541 1.18436 5.12504C1.17198 5.22467 1.17973 5.32577 1.20715 5.42235C1.23457 5.51893 1.2811 5.60902 1.34398 5.68728C1.40686 5.76554 1.48482 5.83039 1.57322 5.87796L4.21622 7.41096C4.06093 7.79832 3.9529 8.20299 3.89447 8.61621H0.834473C0.63556 8.61621 0.444795 8.69523 0.304143 8.83588C0.16349 8.97653 0.0844727 9.1673 0.0844727 9.36621C0.0844727 9.56512 0.16349 9.75589 0.304143 9.89654C0.444795 10.0372 0.63556 10.1162 0.834473 10.1162H3.89447C3.9529 10.5294 4.06093 10.9341 4.21622 11.3215L1.57097 12.8545C1.48257 12.902 1.40461 12.9669 1.34173 13.0451C1.27885 13.1234 1.23232 13.2135 1.2049 13.3101C1.17748 13.4067 1.16973 13.5078 1.18211 13.6074C1.19449 13.707 1.22674 13.8031 1.27696 13.8901C1.32718 13.977 1.39435 14.053 1.47447 14.1135C1.55459 14.174 1.64605 14.2177 1.74341 14.2422C1.84077 14.2667 1.94206 14.2714 2.04127 14.2561C2.14048 14.2407 2.2356 14.2055 2.32097 14.1527L4.96847 12.6175C5.22156 12.9372 5.51073 13.2266 5.83022 13.48L4.29797 16.1282C4.20557 16.2999 4.18367 16.5009 4.23693 16.6885C4.29018 16.876 4.4144 17.0355 4.58324 17.133C4.75209 17.2306 4.95228 17.2585 5.14139 17.211C5.33049 17.1634 5.49363 17.044 5.59622 16.8782L7.12922 14.233C7.51657 14.3886 7.92122 14.4971 8.33447 14.5562V17.6162C8.33447 17.8151 8.41349 18.0059 8.55414 18.1465C8.69479 18.2872 8.88556 18.3662 9.08447 18.3662C9.28339 18.3662 9.47415 18.2872 9.6148 18.1465C9.75546 18.0059 9.83447 17.8151 9.83447 17.6162V14.5562C10.2477 14.4976 10.6523 14.3896 11.0397 14.2345L12.5727 16.8797C12.6753 17.0455 12.8385 17.1649 13.0276 17.2125C13.2167 17.26 13.4169 17.2321 13.5857 17.1345C13.7545 17.037 13.8788 16.8775 13.932 16.69C13.9853 16.5024 13.9634 16.3014 13.871 16.1297L12.3365 13.4815C12.656 13.2281 12.9451 12.9387 13.1982 12.619L15.8457 14.1542C15.9311 14.207 16.0262 14.2422 16.1254 14.2576C16.2246 14.2729 16.3259 14.2682 16.4233 14.2437C16.5206 14.2192 16.6121 14.1755 16.6922 14.115C16.7723 14.0545 16.8395 13.9785 16.8897 13.8916C16.94 13.8046 16.9722 13.7085 16.9846 13.6089C16.997 13.5093 16.9892 13.4082 16.9618 13.3116C16.9344 13.215 16.8878 13.1249 16.825 13.0466C16.7621 12.9684 16.6841 12.9035 16.5957 12.856L13.9505 11.323C14.1066 10.9352 14.2154 10.53 14.2745 10.1162H17.3345C17.5334 10.1162 17.7242 10.0372 17.8648 9.89654C18.0055 9.75589 18.0845 9.56512 18.0845 9.36621C18.0845 9.1673 18.0055 8.97653 17.8648 8.83588C17.7242 8.69523 17.5334 8.61621 17.3345 8.61621ZM9.08447 13.1162C4.12847 12.9587 4.12997 5.77296 9.08447 5.61621C14.0405 5.77371 14.039 12.9595 9.08447 13.1162Z" fill="currentColor"/>
</g>
</svg>
