<svg width="15" height="19" viewBox="0 0 15 20" fill="none" xmlns="http://www.w3.org/2000/svg">
<path d="M6.4345 12.7788L4.84225 11.1865C4.76792 11.1122 4.68683 11.0564 4.599 11.0192C4.51117 10.9821 4.42083 10.9635 4.328 10.9635C4.235 10.9635 4.14042 10.9821 4.04425 11.0192C3.94808 11.0564 3.86283 11.1122 3.7885 11.1865C3.63333 11.3417 3.55575 11.5199 3.55575 11.7213C3.55575 11.9224 3.63333 12.1006 3.7885 12.2558L5.81725 14.3C5.91092 14.3935 6.00967 14.4595 6.1135 14.498C6.21733 14.5365 6.3295 14.5557 6.45 14.5557C6.5705 14.5557 6.68267 14.5365 6.7865 14.498C6.89033 14.4595 6.98908 14.3935 7.08275 14.3L11.2115 10.171C11.3602 10.0223 11.4362 9.84325 11.4395 9.63375C11.4427 9.42408 11.3667 9.24167 11.2115 9.0865C11.0563 8.93133 10.8756 8.85375 10.6693 8.85375C10.4629 8.85375 10.2822 8.93133 10.127 9.0865L6.4345 12.7788ZM1.80775 19C1.30258 19 0.875 18.825 0.525 18.475C0.175 18.125 0 17.6974 0 17.1923V1.80775C0 1.30258 0.175 0.875 0.525 0.525C0.875 0.175 1.30258 0 1.80775 0H9.002C9.243 0 9.47475 0.0468332 9.69725 0.1405C9.91958 0.234 10.1128 0.362834 10.277 0.527L14.473 4.723C14.6372 4.88717 14.766 5.08042 14.8595 5.30275C14.9532 5.52525 15 5.757 15 5.998V17.1923C15 17.6974 14.825 18.125 14.475 18.475C14.125 18.825 13.6974 19 13.1923 19H1.80775ZM9 5.096V1.5H1.80775C1.73075 1.5 1.66025 1.53208 1.59625 1.59625C1.53208 1.66025 1.5 1.73075 1.5 1.80775V17.1923C1.5 17.2693 1.53208 17.3398 1.59625 17.4038C1.66025 17.4679 1.73075 17.5 1.80775 17.5H13.1923C13.2692 17.5 13.3398 17.4679 13.4038 17.4038C13.4679 17.3398 13.5 17.2693 13.5 17.1923V6H9.904C9.64617 6 9.43108 5.91375 9.25875 5.74125C9.08625 5.56892 9 5.35383 9 5.096Z" fill="currentColor"/>
</svg>
